<?xml version="1.0" encoding="UTF-8" standalone="no"?>
<svg width="85px" height="78px" viewBox="0 0 85 78" version="1.1" xmlns="http://www.w3.org/2000/svg" xmlns:xlink="http://www.w3.org/1999/xlink" xmlns:sketch="http://www.bohemiancoding.com/sketch/ns">
    <!-- Generator: Sketch 3.3.3 (12072) - http://www.bohemiancoding.com/sketch -->
    <title>Documents Copy</title>
    <desc>Created with Sketch.</desc>
    <defs>
        <rect id="path-1" x="0.398" y="0.542" width="34.938" height="3.494"></rect>
        <rect id="path-3" x="0.401" y="0.542" width="34.938" height="3.494"></rect>
        <rect id="path-5" x="0.904" y="0.025" width="41.928" height="3.494"></rect>
        <rect id="path-7" x="0.904" y="0.025" width="41.928" height="3.494"></rect>
        <rect id="path-9" x="0.411" y="0.506" width="48.915" height="20.963"></rect>
        <rect id="path-11" x="0.411" y="0.506" width="48.918" height="20.963"></rect>
    </defs>
    <g id="Page-1" stroke="none" stroke-width="1" fill="none" fill-rule="evenodd" sketch:type="MSPage">
        <g id="Documents" sketch:type="MSLayerGroup">
            <path d="M73.489,0.567 L67.325,0.567 L63.832,0.567 L21.906,0.567 L18.412,0.567 L12.253,0.567 L1.066,41.574 L0.942,77.433 L84.795,77.433 L84.795,42.494 L73.489,0.567 L73.489,0.567 Z M17.588,7.555 L18.412,7.555 L21.906,7.555 L63.832,7.555 L67.325,7.555 L68.157,7.555 L77.684,42.494 L58.471,42.494 L51.483,52.974 L34.258,52.974 L27.271,42.494 L8.061,42.494 L17.588,7.555 L17.588,7.555 Z" id="Shape" fill="#007aff" sketch:type="MSShapeGroup"></path>
            <path d="M67.325,32.012 L18.412,32.012 L14.918,32.012 L14.918,42.494 L18.412,42.494 L18.412,35.506 L67.325,35.506 L67.325,42.494 L70.819,42.494 L70.819,35.506 L70.819,32.012 L67.325,32.012 Z" id="Shape" fill="#007aff" sketch:type="MSShapeGroup"></path>
            <path d="M63.832,21.531 L21.906,21.531 L18.412,21.531 L18.412,25.025 L18.412,28.519 L21.906,28.519 L21.906,25.025 L63.832,25.025 L63.832,28.519 L67.325,28.519 L67.325,25.025 L67.325,21.531 L63.832,21.531 Z" id="Shape" fill="#007aff" sketch:type="MSShapeGroup"></path>
            <path d="M60.336,11.049 L25.4,11.049 L21.906,11.049 L21.906,18.037 L25.4,18.037 L25.4,14.542 L60.336,14.542 L60.336,18.037 L63.832,18.037 L63.832,14.542 L63.832,11.049 L60.336,11.049 Z" id="Shape" fill="#007aff" sketch:type="MSShapeGroup"></path>
            <g id="Group" transform="translate(25.000000, 14.000000)">
                <g id="Clipped">
                    <g>
                        <mask id="mask-2" sketch:name="SVGID_1_" fill="white">
                            <use xlink:href="#path-1"></use>
                        </mask>
                        <g id="SVGID_1_"></g>
                        <g mask="url(#mask-2)">
                            <mask id="mask-4" sketch:name="SVGID_3_" fill="white">
                                <use xlink:href="#path-3"></use>
                            </mask>
                            <g id="SVGID_3_"></g>
                        </g>
                    </g>
                </g>
            </g>
            <g id="Group" transform="translate(21.000000, 25.000000)">
                <g id="Clipped">
                    <g>
                        <mask id="mask-6" sketch:name="SVGID_5_" fill="white">
                            <use xlink:href="#path-5"></use>
                        </mask>
                        <g id="SVGID_5_"></g>
                        <g mask="url(#mask-6)">
                            <mask id="mask-8" sketch:name="SVGID_7_" fill="white">
                                <use xlink:href="#path-7"></use>
                            </mask>
                            <g id="SVGID_7_"></g>
                        </g>
                    </g>
                </g>
            </g>
            <g id="Group" transform="translate(18.000000, 35.000000)">
                <g id="Clipped">
                    <g>
                        <mask id="mask-10" sketch:name="SVGID_9_" fill="white">
                            <use xlink:href="#path-9"></use>
                        </mask>
                        <g id="SVGID_9_"></g>
                        <g mask="url(#mask-10)">
                            <mask id="mask-12" sketch:name="SVGID_11_" fill="white">
                                <use xlink:href="#path-11"></use>
                            </mask>
                            <g id="SVGID_11_"></g>
                        </g>
                    </g>
                </g>
            </g>
        </g>
    </g>
</svg>